<?xml version="1.0" encoding="UTF-8" standalone="no"?>
<!-- Generator: Adobe Illustrator 15.1.0, SVG Export Plug-In . SVG Version: 6.00 Build 0)  -->

<svg
   xmlns:dc="http://purl.org/dc/elements/1.1/"
   xmlns:cc="http://creativecommons.org/ns#"
   xmlns:rdf="http://www.w3.org/1999/02/22-rdf-syntax-ns#"
   xmlns:svg="http://www.w3.org/2000/svg"
   xmlns="http://www.w3.org/2000/svg"
   xmlns:sodipodi="http://sodipodi.sourceforge.net/DTD/sodipodi-0.dtd"
   xmlns:inkscape="http://www.inkscape.org/namespaces/inkscape"
   version="1.1"
   id="Ebene_1"
   x="0px"
   y="0px"
   width="400"
   height="173.536"
   viewBox="0 0 400 173.53599"
   enable-background="new 0 0 140 720"
   xml:space="preserve"
   sodipodi:docname="Blau Logo 2019-06-15.svg"
   inkscape:version="0.92.1 r15371"><metadata
     id="metadata213"><rdf:RDF><cc:Work
         rdf:about=""><dc:format>image/svg+xml</dc:format><dc:type
           rdf:resource="http://purl.org/dc/dcmitype/StillImage" /><dc:title></dc:title></cc:Work></rdf:RDF></metadata><defs
     id="defs211"><style
       id="style283">.cls-1{fill:#e31818}.cls-2{fill:#fff}</style></defs><sodipodi:namedview
     pagecolor="#ffffff"
     bordercolor="#666666"
     borderopacity="1"
     objecttolerance="10"
     gridtolerance="10"
     guidetolerance="10"
     inkscape:pageopacity="0"
     inkscape:pageshadow="2"
     inkscape:window-width="1920"
     inkscape:window-height="1001"
     id="namedview209"
     showgrid="false"
     inkscape:zoom="2.58"
     inkscape:cx="200"
     inkscape:cy="87.536001"
     inkscape:window-x="-9"
     inkscape:window-y="-9"
     inkscape:window-maximized="1"
     inkscape:current-layer="Ebene_1"
     fit-margin-top="0"
     fit-margin-left="0"
     fit-margin-right="0"
     fit-margin-bottom="0" /><path
     style="fill:#7814b3;stroke-width:4"
     inkscape:connector-curvature="0"
     d="m 0,140.736 h 400 v 32.8 H 0 Z"
     id="path317" /><path
     style="fill:#00b6f1;stroke-width:4"
     inkscape:connector-curvature="0"
     d="m 99.512,53.284 c 13.792,5.324 21.112,14.352 20.276,29.744 -0.836,20.036 -16.44,33.88 -36.864,33.88 H 4 V 85.856 H 15.1 V 31.064 H 4 V 0 h 79.256 c 17.276,0 31.072,14.696 30.544,32.068 -0.176,9.336 -5.136,18.052 -14.288,21.216 z M 63.676,28.412 H 53.344 v 16.456 h 10.332 c 10.176,0 10.864,-16.456 0,-16.456 z M 76.672,78.12 c 0,-4.772 -3.084,-9.524 -10.184,-9.524 H 53.344 v 19.056 h 13.144 c 6.912,0 10.184,-4.692 10.184,-9.532 z M 122.888,0 v 31.064 h 11 v 85.84 H 174.06 V 0 Z M 289.72,116.908 h -37.684 l -0.824,-8.68 c -6.14,7.516 -15.28,10.18 -23.892,10.352 -57.132,0.664 -57.132,-94.168 0,-93.52 8.608,0 17.752,2.676 23.892,10.188 l 0.828,-8.7 h 37.68 z m -40,-45.1 c 0,-17.532 -24.732,-17.356 -24.732,0 0.004,17.376 24.732,17.548 24.732,0 z M 399.772,26.544 H 359.936 V 75.32 c 0,6.688 -4.984,9.852 -9.964,9.852 -5,0 -8.984,-3.324 -8.984,-9.684 V 26.544 h -39.86 v 49.128 c 0,24.228 9.456,42.248 36.204,42.916 8.796,0.164 17.94,-2.688 24.24,-10.696 l 0.844,9.016 37.368,0.06 V 26.544 Z"
     id="path319" /></svg>