<svg width="24" height="24" viewBox="0 0 24 24" fill="none" xmlns="http://www.w3.org/2000/svg">
<path fill-rule="evenodd" clip-rule="evenodd" d="M14.8523 12.0002L23.4151 3.41443C24.195 2.63245 24.195 1.36847 23.4151 0.586488C22.6352 -0.195496 21.3746 -0.195496 20.5947 0.586488L12.032 9.17231L3.46925 0.586488C2.68937 -0.195496 1.42879 -0.195496 0.648907 0.586488C-0.130975 1.36847 -0.130975 2.63245 0.648907 3.41443L9.21166 12.0002L0.648907 20.5861C-0.130975 21.3681 -0.130975 22.632 0.648907 23.414C1.03785 23.804 1.54846 24 2.05908 24C2.56969 24 3.0803 23.804 3.46925 23.414L12.032 14.8282L20.5947 23.414C20.9837 23.804 21.4943 24 22.0049 24C22.5155 24 23.0261 23.804 23.4151 23.414C24.195 22.632 24.195 21.3681 23.4151 20.5861L14.8523 12.0002Z" fill="#8D94AC"/>
</svg>
