<svg width="70" height="65" viewBox="0 0 70 65" fill="none" xmlns="http://www.w3.org/2000/svg">
<path d="M19.63 6.85C22.915 2.84 28 0 35 0C39.25 0 44.205 1.4 48.15 4.63C51.34 7.24 53.79 10.995 54.655 15.94C50.1676 14.7299 45.4466 14.6769 40.9332 15.7859C36.4197 16.8949 32.2609 19.1298 28.8453 22.2817C25.4297 25.4337 22.8686 29.3999 21.4014 33.81C19.9341 38.22 19.6085 42.93 20.455 47.5H17.5C10.73 47.5 6.21 45.45 3.43 42.27C0.71 39.16 0 35.365 0 32.5C0 26.61 4.825 18.675 15.14 17.62C15.57 13.98 16.99 10.075 19.63 6.855V6.85ZM70 42.5C70 45.4547 69.418 48.3806 68.2873 51.1104C67.1566 53.8402 65.4992 56.3206 63.4099 58.4099C61.3206 60.4992 58.8402 62.1566 56.1104 63.2873C53.3806 64.418 50.4547 65 47.5 65C44.5453 65 41.6194 64.418 38.8896 63.2873C36.1598 62.1566 33.6794 60.4992 31.5901 58.4099C29.5008 56.3206 27.8434 53.8402 26.7127 51.1104C25.582 48.3806 25 45.4547 25 42.5C25 36.5326 27.3705 30.8097 31.5901 26.5901C35.8097 22.3705 41.5326 20 47.5 20C53.4674 20 59.1903 22.3705 63.4099 26.5901C67.6295 30.8097 70 36.5326 70 42.5ZM49.27 54.265L59.27 44.265C59.7388 43.7956 60.0019 43.1591 60.0014 42.4957C60.0009 41.8323 59.7369 41.1963 59.2675 40.7275C58.7981 40.2587 58.1616 39.9956 57.4982 39.9961C56.8348 39.9966 56.1988 40.2606 55.73 40.73L50 46.465V32.5C50 31.837 49.7366 31.2011 49.2678 30.7322C48.7989 30.2634 48.163 30 47.5 30C46.837 30 46.2011 30.2634 45.7322 30.7322C45.2634 31.2011 45 31.837 45 32.5V46.465L39.27 40.73C38.8006 40.2606 38.1639 39.9968 37.5 39.9968C36.8361 39.9968 36.1994 40.2606 35.73 40.73C35.2606 41.1994 34.9968 41.8361 34.9968 42.5C34.9968 43.1639 35.2606 43.8006 35.73 44.27L45.73 54.27C46.1961 54.7349 46.8267 54.9972 47.485 55H47.515C48.1667 54.996 48.791 54.7376 49.255 54.28L49.27 54.265Z" fill="#EDF1F7"/>
</svg>
