<svg width="15" height="14" viewBox="0 0 15 14" fill="none" xmlns="http://www.w3.org/2000/svg">
<path fill-rule="evenodd" clip-rule="evenodd" d="M13.3347 0.352865C13.793 0.355365 14.1638 0.727031 14.1638 1.18536L14.1663 5.3312C14.1672 5.7912 13.7938 6.16536 13.3338 6.16536H13.333C12.873 6.16536 12.5005 5.79203 12.4997 5.33286L12.498 3.1787L9.75549 5.9212C9.59299 6.0837 9.37966 6.16536 9.16632 6.16536C8.95382 6.16536 8.74049 6.0837 8.57716 5.9212C8.25216 5.59536 8.25216 5.06786 8.57716 4.74286L11.3105 2.00953L9.16299 1.9987C8.70216 1.9962 8.33049 1.62036 8.33299 1.1612C8.33549 0.702031 8.70882 0.332031 9.16632 0.332031H9.17049L13.3347 0.352865ZM5.24416 8.07586C5.56999 7.75003 6.09666 7.75003 6.42249 8.07586C6.74832 8.4017 6.74832 8.92836 6.42249 9.2542L3.67916 11.9975L5.83332 11.9984C6.29416 11.9984 6.66666 12.3717 6.66666 12.8325C6.66582 13.2925 6.29332 13.665 5.83332 13.665H5.83249L1.68666 13.6625C1.22833 13.6625 0.856659 13.2917 0.854159 12.8334L0.833326 8.6692C0.830826 8.2092 1.20249 7.8342 1.66249 7.8317H1.66666C2.12499 7.8317 2.49749 8.2017 2.49999 8.66086L2.51083 10.8092L5.24416 8.07586Z" fill="#7D1120"/>
</svg>
