<svg width="30" height="29" viewBox="0 0 30 29" fill="none" xmlns="http://www.w3.org/2000/svg">
<path fill-rule="evenodd" clip-rule="evenodd" d="M25.202 28.5863H16.2958V19.5169H26.6587V27.147C26.6587 27.9418 26.0064 28.5863 25.202 28.5863ZM3.34146 27.1462V19.5177H13.7044V28.587H4.79812C3.99379 28.587 3.34146 27.941 3.34146 27.1462ZM27.8246 6.56335H24.9081C25.1915 5.97277 25.3641 5.31885 25.3641 4.61902C25.3641 2.12052 23.3295 0.0859375 20.8294 0.0859375C17.8512 0.0859375 16.0462 2.17594 14.9996 4.15352C13.953 2.17594 12.1496 0.0859375 9.17135 0.0859375C6.67127 0.0859375 4.6351 2.12052 4.6351 4.61902C4.6351 5.31885 4.80927 5.97277 5.09269 6.56335H2.17619C1.38927 6.56335 0.749603 7.49119 0.749603 8.63752V14.8537C0.749603 15.9984 1.38927 16.9279 2.17619 16.9279H3.34152H13.7044V6.56335H16.2964V16.9279H26.6593H27.8246C28.6115 16.9279 29.2496 15.9984 29.2496 14.8537V8.63752C29.2496 7.49119 28.6115 6.56335 27.8246 6.56335V6.56335ZM20.8292 6.56333H16.7426C17.3538 4.95467 18.6109 2.67783 20.8292 2.67783C21.9011 2.67783 22.7735 3.54867 22.7735 4.619C22.7735 5.69092 21.9011 6.56333 20.8292 6.56333V6.56333ZM9.17125 6.56333C8.09933 6.56333 7.22691 5.69092 7.22691 4.619C7.22691 3.54867 8.09933 2.67783 9.17125 2.67783C11.3895 2.67783 12.6467 4.95467 13.2578 6.56333H9.17125Z" fill="#8F9BB3"/>
</svg>
