<svg width="31" height="42" viewBox="0 0 31 42" fill="none" xmlns="http://www.w3.org/2000/svg">
<path d="M0 3.875C0 2.84729 0.408258 1.86166 1.13496 1.13496C1.86166 0.408258 2.84729 0 3.875 0L22.1805 0C23.2079 0.000904436 24.1928 0.409755 24.9188 1.13667L29.8659 6.08117C30.5919 6.8076 30.9998 7.7925 31 8.8195V37.4583C31 38.486 30.5917 39.4717 29.865 40.1984C29.1383 40.9251 28.1527 41.3333 27.125 41.3333H3.875C2.84729 41.3333 1.86166 40.9251 1.13496 40.1984C0.408258 39.4717 0 38.486 0 37.4583V3.875ZM3.875 2.58333C3.53243 2.58333 3.20389 2.71942 2.96165 2.96165C2.71942 3.20389 2.58333 3.53243 2.58333 3.875V37.4583C2.58333 37.8009 2.71942 38.1294 2.96165 38.3717C3.20389 38.6139 3.53243 38.75 3.875 38.75H27.125C27.4676 38.75 27.7961 38.6139 28.0383 38.3717C28.2806 38.1294 28.4167 37.8009 28.4167 37.4583V8.8195C28.4166 8.47759 28.281 8.14966 28.0395 7.90758L23.0924 2.9605C22.8503 2.71904 22.5224 2.58341 22.1805 2.58333H3.875Z" fill="#8F9BB3"/>
<path d="M9.04166 10.3333C8.69908 10.3333 8.37054 10.4694 8.12831 10.7117C7.88608 10.9539 7.74999 11.2824 7.74999 11.625V15.5H14.2083V10.3333H9.04166ZM16.7917 10.3333V15.5H23.25V11.625C23.25 11.2824 23.1139 10.9539 22.8717 10.7117C22.6294 10.4694 22.3009 10.3333 21.9583 10.3333H16.7917ZM23.25 18.0833H7.74999V23.25H23.25V18.0833ZM23.25 25.8333H16.7917V31H21.9583C22.3009 31 22.6294 30.8639 22.8717 30.6217C23.1139 30.3794 23.25 30.0509 23.25 29.7083V25.8333ZM14.2083 31V25.8333H7.74999V29.7083C7.74999 30.0509 7.88608 30.3794 8.12831 30.6217C8.37054 30.8639 8.69908 31 9.04166 31H14.2083ZM5.16666 11.625C5.16666 10.5973 5.57491 9.61166 6.30162 8.88496C7.02832 8.15826 8.01394 7.75 9.04166 7.75H21.9583C22.986 7.75 23.9717 8.15826 24.6984 8.88496C25.4251 9.61166 25.8333 10.5973 25.8333 11.625V29.7083C25.8333 30.736 25.4251 31.7217 24.6984 32.4484C23.9717 33.1751 22.986 33.5833 21.9583 33.5833H9.04166C8.01394 33.5833 7.02832 33.1751 6.30162 32.4484C5.57491 31.7217 5.16666 30.736 5.16666 29.7083V11.625Z" fill="#8F9BB3"/>
</svg>
