<svg width="25" height="41" viewBox="0 0 25 41" fill="none" xmlns="http://www.w3.org/2000/svg">
<path fill-rule="evenodd" clip-rule="evenodd" d="M2.93441 0.40625H17.1868C17.9543 0.40625 18.6904 0.711159 19.2332 1.2539C19.7759 1.79664 20.0808 2.53276 20.0808 3.30031V11H18.9966V7.49656C18.9966 7.2575 18.7997 7.06062 18.5607 7.06062H1.55909C1.32003 7.06062 1.12597 7.2575 1.12597 7.49656V33.2492C1.12597 33.3643 1.17151 33.4748 1.25266 33.5565C1.3338 33.6382 1.44396 33.6844 1.55909 33.6852H18.5621C18.6772 33.6844 18.7874 33.6382 18.8685 33.5565C18.9496 33.4748 18.9952 33.3643 18.9952 33.2492H18.9966V30H20.0808V37.5931C20.0808 39.192 18.7843 40.4858 17.1868 40.4858H2.93441C1.33409 40.4858 0.0403442 39.1892 0.0403442 37.5917V3.30031C0.0403442 1.7 1.33691 0.40625 2.93441 0.40625ZM11.5069 3.59H8.61566H8.61285C8.47222 3.59 8.35972 3.7025 8.35972 3.84313C8.35972 3.98375 8.47503 4.09625 8.61566 4.09625H11.5055C11.6475 4.09625 11.7643 3.98375 11.7643 3.84313C11.7643 3.7025 11.6475 3.59 11.5069 3.59ZM6.95566 3.44859C6.86072 3.35365 6.73196 3.30031 6.59769 3.30031C6.46342 3.30031 6.33466 3.35365 6.23972 3.44859C6.14478 3.54353 6.09144 3.6723 6.09144 3.80656C6.09144 3.94083 6.14478 4.0696 6.23972 4.16454C6.33466 4.25948 6.46342 4.31281 6.59769 4.31281C6.73196 4.31281 6.86072 4.25948 6.95566 4.16454C7.0506 4.0696 7.10394 3.94083 7.10394 3.80656C7.10394 3.6723 7.0506 3.54353 6.95566 3.44859ZM9.28635 38.886C9.53203 38.9878 9.79536 39.0402 10.0613 39.0402C10.5983 39.0402 11.1134 38.8268 11.4932 38.447C11.8729 38.0673 12.0863 37.5522 12.0863 37.0152C12.0863 36.4781 11.8729 35.963 11.4932 35.5833C11.1134 35.2035 10.5983 34.9902 10.0613 34.9902C9.79536 34.9902 9.53203 35.0425 9.28635 35.1443C9.04066 35.2461 8.81743 35.3952 8.62939 35.5833C8.44135 35.7713 8.29219 35.9945 8.19043 36.2402C8.08866 36.4859 8.03628 36.7492 8.03628 37.0152C8.03628 37.2811 8.08866 37.5444 8.19043 37.7901C8.29219 38.0358 8.44135 38.259 8.62939 38.447C8.81743 38.6351 9.04066 38.7842 9.28635 38.886Z" fill="#8F9BB3"/>
<path d="M13.7962 12.3158C13.9278 11.9668 14.1926 11.6844 14.5324 11.5307C14.8722 11.377 15.2592 11.3646 15.6082 11.4962L21.8241 13.84C22.1728 13.9719 22.4549 14.2368 22.6084 14.5766L23.6551 16.889C23.8086 17.2286 23.821 17.6153 23.6896 17.964L20.0227 27.6888C19.8911 28.0378 19.6263 28.3202 19.2865 28.4739C18.9466 28.6276 18.5597 28.64 18.2107 28.5085L10.3158 25.5315C9.96686 25.3999 9.68445 25.1351 9.53073 24.7953C9.37702 24.4555 9.36458 24.0685 9.49617 23.7195L13.7962 12.3158ZM15.2774 12.3734C15.1611 12.3295 15.0321 12.3336 14.9188 12.3849C14.8056 12.4361 14.7173 12.5303 14.6734 12.6466L10.3734 24.0503C10.3295 24.1666 10.3337 24.2956 10.3849 24.4089C10.4361 24.5222 10.5303 24.6104 10.6466 24.6543L18.5415 27.6312C18.6578 27.6751 18.7868 27.671 18.9001 27.6197C19.0133 27.5685 19.1016 27.4743 19.1455 27.358L22.8124 17.6333C22.8562 17.5172 22.8521 17.3884 22.8011 17.2753L21.7547 14.962C21.7034 14.8491 21.6094 14.761 21.4933 14.7172L15.2774 12.3734Z" fill="#8F9BB3"/>
<path d="M16.0394 15.6663C15.9231 15.6225 15.7941 15.6266 15.6808 15.6779C15.5676 15.7291 15.4793 15.8232 15.4354 15.9396L14.9393 17.2554L17.1323 18.0823L17.7938 16.3279L16.0394 15.6663ZM18.6711 16.6586L18.0095 18.4131L20.2025 19.24L20.6987 17.9242C20.7426 17.8079 20.7384 17.6789 20.6872 17.5656C20.6359 17.4523 20.5418 17.3641 20.4255 17.3202L18.6711 16.6586ZM19.8718 20.1172L14.6085 18.1326L13.947 19.887L19.2102 21.8716L19.8718 20.1172ZM18.8794 22.7488L16.6864 21.9219L16.0249 23.6763L17.7793 24.3379C17.8956 24.3817 18.0246 24.3776 18.1379 24.3264C18.2512 24.2751 18.3394 24.181 18.3833 24.0646L18.8794 22.7488ZM15.1477 23.3456L15.8092 21.5911L13.6162 20.7642L13.12 22.08C13.0762 22.1963 13.0803 22.3253 13.1316 22.4386C13.1828 22.5519 13.2769 22.6401 13.3933 22.684L15.1477 23.3456ZM14.5582 15.6088C14.6898 15.2598 14.9546 14.9774 15.2945 14.8237C15.6343 14.67 16.0212 14.6575 16.3702 14.7891L20.7562 16.443C21.1052 16.5746 21.3876 16.8394 21.5413 17.1792C21.6951 17.519 21.7075 17.906 21.5759 18.255L19.2605 24.3954C19.1289 24.7444 18.8641 25.0268 18.5243 25.1805C18.1845 25.3342 17.7975 25.3467 17.4485 25.2151L13.0625 23.5612C12.7135 23.4296 12.4311 23.1648 12.2774 22.825C12.1237 22.4852 12.1112 22.0982 12.2428 21.7492L14.5582 15.6088Z" fill="#8F9BB3"/>
</svg>
