<svg width="38" height="39" viewBox="0 0 38 39" fill="none" xmlns="http://www.w3.org/2000/svg">
<path fill-rule="evenodd" clip-rule="evenodd" d="M29.202 33.5863H20.2958V24.5169H30.6587V32.147C30.6587 32.9418 30.0064 33.5863 29.202 33.5863ZM7.34146 32.1462V24.5177H17.7044V33.587H8.79812C7.99379 33.587 7.34146 32.941 7.34146 32.1462ZM31.8246 11.5634H28.9081C29.1915 10.9728 29.3641 10.3189 29.3641 9.61902C29.3641 7.12052 27.3295 5.08594 24.8294 5.08594C21.8512 5.08594 20.0462 7.17594 18.9996 9.15352C17.953 7.17594 16.1496 5.08594 13.1714 5.08594C10.6713 5.08594 8.6351 7.12052 8.6351 9.61902C8.6351 10.3189 8.80927 10.9728 9.09269 11.5634H6.17619C5.38927 11.5634 4.7496 12.4912 4.7496 13.6375V19.8537C4.7496 20.9984 5.38927 21.9279 6.17619 21.9279H7.34152H17.7044V11.5634H20.2964V21.9279H30.6593H31.8246C32.6115 21.9279 33.2496 20.9984 33.2496 19.8537V13.6375C33.2496 12.4912 32.6115 11.5634 31.8246 11.5634V11.5634ZM24.8292 11.5633H20.7426C21.3538 9.95467 22.6109 7.67783 24.8292 7.67783C25.9011 7.67783 26.7735 8.54867 26.7735 9.619C26.7735 10.6909 25.9011 11.5633 24.8292 11.5633V11.5633ZM13.1712 11.5633C12.0993 11.5633 11.2269 10.6909 11.2269 9.619C11.2269 8.54867 12.0993 7.67783 13.1712 7.67783C15.3895 7.67783 16.6467 9.95467 17.2578 11.5633H13.1712Z" fill="#8F9BB3"/>
</svg>
