<svg width="12" height="14" viewBox="0 0 12 14" fill="none" xmlns="http://www.w3.org/2000/svg">
<path fill-rule="evenodd" clip-rule="evenodd" d="M10.6601 12.3336H8.66679V7.66696C8.66679 7.2983 8.36812 7.0003 8.00012 7.0003H4.00012C3.63146 7.0003 3.33346 7.2983 3.33346 7.66696V12.3336H1.33346L1.33746 6.7223L5.99879 1.95496L10.6668 6.74963L10.6601 12.3336ZM4.66679 12.3336H7.33346V8.33363H4.66679V12.3336ZM11.6161 5.7903L6.47679 0.534297C6.22546 0.27763 5.77479 0.27763 5.52346 0.534297L0.383455 5.79096C0.140122 6.04096 0.00012207 6.3903 0.00012207 6.74963V12.3336C0.00012207 13.069 0.564789 13.667 1.25879 13.667H4.00012H8.00012H10.7408C11.4348 13.667 12.0001 13.069 12.0001 12.3336V6.74963C12.0001 6.3903 11.8601 6.04096 11.6161 5.7903V5.7903Z" fill="#54BC2B"/>
</svg>
