<svg width="21" height="9" viewBox="0 0 21 9" fill="none" xmlns="http://www.w3.org/2000/svg">
<path d="M15.7877 1.88742e-05C14.5655 1.88742e-05 13.4111 0.462637 12.5878 1.26396L10.1856 3.33748L8.89546 4.44445H8.90395L6.62067 6.41884C6.07743 6.94755 5.35595 7.23668 4.58354 7.23668C2.99628 7.23668 1.7061 5.98927 1.7061 4.44445C1.7061 2.89964 2.99628 1.65223 4.58354 1.65223C5.35595 1.65223 6.07743 1.94136 6.65462 2.50311L7.61377 3.32921L8.89546 2.22224L7.82597 1.30526C7.40091 0.890004 6.89551 0.560848 6.33897 0.336813C5.78244 0.112779 5.1858 -0.0016909 4.58354 1.88742e-05C2.0541 1.88742e-05 0 1.99919 0 4.44445C0 6.88972 2.0541 8.88889 4.58354 8.88889C5.80582 8.88889 6.96019 8.42627 7.78353 7.62495L10.1856 5.55969L10.1941 5.56795L11.4758 4.44445H11.4673L13.7506 2.47007C14.2939 1.94136 15.0153 1.65223 15.7877 1.65223C17.375 1.65223 18.6652 2.89964 18.6652 4.44445C18.6652 5.98927 17.375 7.23668 15.7877 7.23668C15.0238 7.23668 14.2939 6.94755 13.7167 6.3858L12.749 5.55143L11.4673 6.65841L12.5453 7.58365C12.9715 7.99682 13.4773 8.32407 14.0337 8.54663C14.5901 8.7692 15.1862 8.8827 15.7877 8.88063C18.3172 8.88063 20.3713 6.88972 20.3713 4.43619C20.3713 1.98267 18.3172 1.88742e-05 15.7877 1.88742e-05Z" fill="#2E3A59"/>
</svg>
